<svg width="143" height="138" viewBox="0 0 143 138" fill="none" xmlns="http://www.w3.org/2000/svg">
<path d="M19.1206 2.84028C8.52031 4.3546 3.31962 17.2959 2.01905 23.6711C2.00589 23.7356 2 23.7986 2 23.8644V133.969C2 134.799 2.95209 135.268 3.60971 134.762L26.142 117.429C26.4911 117.161 26.9747 117.152 27.333 117.408L52.7049 135.531C53.0881 135.805 53.6104 135.774 53.9588 135.457L73.6676 117.54C74.0259 117.214 74.5662 117.192 74.95 117.487L97.4068 134.762C98.0644 135.268 99.0165 134.826 99.0165 133.996V16.1561C99.0165 10.0687 112.332 2.79673 114.235 2.84028C86.9687 2.20618 29.7733 1.31845 19.1206 2.84028Z" stroke="#3D3D3D" stroke-width="3"/>
<line x1="18.7183" y1="45.0927" x2="72.7868" y2="45.0927" stroke="#3D3D3D" stroke-width="3" stroke-linecap="round"/>
<line x1="18.7183" y1="67.9201" x2="72.7868" y2="67.9201" stroke="#3D3D3D" stroke-width="3" stroke-linecap="round"/>
<path d="M22.925 86.5406H41.9479" stroke="#3D3D3D" stroke-width="3" stroke-linecap="round"/>
<rect x="110.028" y="21.4607" width="31.2411" height="46.4594" rx="1.5" stroke="#3D3D3D" stroke-width="3"/>
</svg>
