<svg width="151" height="134" viewBox="0 0 151 134" fill="none" xmlns="http://www.w3.org/2000/svg">
<circle cx="58.2609" cy="58.2609" r="56.7609" fill="#525252" stroke="#525252" stroke-width="3"/>
<circle cx="59.7175" cy="36.413" r="17.4348" fill="white" stroke="white" stroke-width="3"/>
<mask id="path-3-inside-1_24_86" fill="white">
<path fill-rule="evenodd" clip-rule="evenodd" d="M84.3913 85.9887H87.3913C87.3913 74.7269 75.0012 65.5974 59.7174 65.5974C44.4335 65.5974 32.0435 74.7269 32.0435 85.9887H35.0435C35.0435 81.5369 37.4859 77.2586 41.9286 73.9851C46.37 70.7124 52.6495 68.5974 59.7174 68.5974C66.7852 68.5974 73.0647 70.7124 77.5062 73.9851C81.9488 77.2586 84.3913 81.5369 84.3913 85.9887Z"/>
</mask>
<path fill-rule="evenodd" clip-rule="evenodd" d="M84.3913 85.9887H87.3913C87.3913 74.7269 75.0012 65.5974 59.7174 65.5974C44.4335 65.5974 32.0435 74.7269 32.0435 85.9887H35.0435C35.0435 81.5369 37.4859 77.2586 41.9286 73.9851C46.37 70.7124 52.6495 68.5974 59.7174 68.5974C66.7852 68.5974 73.0647 70.7124 77.5062 73.9851C81.9488 77.2586 84.3913 81.5369 84.3913 85.9887Z" fill="#FFFCFC"/>
<path d="M84.3913 85.9887H81.3913C81.3913 87.6456 82.7344 88.9887 84.3913 88.9887V85.9887ZM87.3913 85.9887V88.9887C89.0481 88.9887 90.3913 87.6456 90.3913 85.9887H87.3913ZM32.0435 85.9887H29.0435C29.0435 87.6456 30.3866 88.9887 32.0435 88.9887V85.9887ZM35.0435 85.9887V88.9887C36.7003 88.9887 38.0435 87.6456 38.0435 85.9887H35.0435ZM41.9286 73.9851L40.149 71.5699V71.5699L41.9286 73.9851ZM77.5062 73.9851L75.7266 76.4002L77.5062 73.9851ZM84.3913 88.9887H87.3913V82.9887H84.3913V88.9887ZM90.3913 85.9887C90.3913 79.1788 86.6387 73.2614 81.0654 69.1547C75.4908 65.0472 67.9334 62.5974 59.7174 62.5974V68.5974C66.7852 68.5974 73.0647 70.7124 77.5062 73.9851C81.9488 77.2586 84.3913 81.5369 84.3913 85.9887H90.3913ZM59.7174 62.5974C51.5014 62.5974 43.9439 65.0472 38.3694 69.1547C32.796 73.2614 29.0435 79.1788 29.0435 85.9887H35.0435C35.0435 81.5369 37.4859 77.2586 41.9286 73.9851C46.37 70.7124 52.6495 68.5974 59.7174 68.5974V62.5974ZM32.0435 88.9887H35.0435V82.9887H32.0435V88.9887ZM40.149 71.5699C35.1375 75.2625 32.0435 80.3613 32.0435 85.9887H38.0435C38.0435 82.7125 39.8344 79.2546 43.7082 76.4002L40.149 71.5699ZM59.7174 65.5974C52.0752 65.5974 45.1568 67.8799 40.149 71.5699L43.7082 76.4002C47.5833 73.5449 53.2238 71.5974 59.7174 71.5974V65.5974ZM79.2858 71.5699C74.278 67.8799 67.3596 65.5974 59.7174 65.5974V71.5974C66.2109 71.5974 71.8515 73.5449 75.7266 76.4002L79.2858 71.5699ZM87.3913 85.9887C87.3913 80.3613 84.2972 75.2625 79.2858 71.5699L75.7266 76.4002C79.6004 79.2546 81.3913 82.7125 81.3913 85.9887H87.3913Z" fill="white" mask="url(#path-3-inside-1_24_86)"/>
<g clip-path="url(#clip0_24_86)">
<path d="M115.21 134.968C114.03 134.978 112.87 134.661 111.86 134.052L99.2295 126.665C94.5013 124.021 90.5548 120.175 87.7891 115.517C85.0233 110.859 83.5363 105.553 83.4783 100.136V79.9527C83.4788 78.5926 83.8959 77.2653 84.6734 76.1493C85.4508 75.0333 86.5514 74.1822 87.827 73.7104L112.921 64.4927C114.399 63.9517 116.021 63.9517 117.498 64.4927L142.592 73.7104C143.868 74.1822 144.968 75.0333 145.746 76.1493C146.523 77.2653 146.94 78.5926 146.941 79.9527V100.136C146.883 105.553 145.396 110.859 142.63 115.517C139.864 120.175 135.918 124.021 131.19 126.665L118.56 134.052C117.549 134.661 116.389 134.978 115.21 134.968ZM115.21 69.2993C115.045 69.2692 114.875 69.2692 114.71 69.2993L89.6165 78.5586C89.3338 78.6632 89.0913 78.8542 88.9232 79.1044C88.7552 79.3547 88.6701 79.6514 88.6801 79.9527V100.136C88.7405 104.643 89.9903 109.055 92.3031 112.924C94.6159 116.794 97.9097 119.983 101.851 122.171L114.481 129.578C114.705 129.7 114.955 129.764 115.21 129.764C115.464 129.764 115.715 129.7 115.938 129.578L128.568 122.171C132.51 119.983 135.803 116.794 138.116 112.924C140.429 109.055 141.679 104.643 141.739 100.136V79.9527C141.74 79.6585 141.651 79.3709 141.484 79.129C141.316 78.8871 141.079 78.7025 140.803 78.6002L115.709 69.3825C115.549 69.3245 115.38 69.2963 115.21 69.2993Z" fill="#3FA0E5"/>
<path d="M115.21 69.2993C115.045 69.2692 114.875 69.2692 114.71 69.2993L89.6165 78.5586C89.3338 78.6632 89.0913 78.8542 88.9232 79.1044C88.7552 79.3547 88.6701 79.6514 88.6801 79.9527V100.136C88.7405 104.643 89.9903 109.055 92.3031 112.924C94.6159 116.794 97.9097 119.983 101.851 122.171L114.481 129.578C114.705 129.7 114.955 129.764 115.21 129.764C115.464 129.764 115.715 129.7 115.938 129.578L128.568 122.171C132.51 119.983 135.803 116.794 138.116 112.924C140.429 109.055 141.679 104.643 141.739 100.136V79.9527C141.74 79.6585 141.651 79.3709 141.484 79.129C141.316 78.8871 141.079 78.7025 140.803 78.6002L115.709 69.3825C115.549 69.3245 115.38 69.2963 115.21 69.2993Z" fill="white"/>
<path d="M115.522 122.348C114.764 122.354 114.018 122.146 113.369 121.746L105.252 116.888C102.214 115.15 99.6779 112.621 97.9006 109.558C96.1233 106.495 95.1677 103.006 95.1304 99.4436V86.1718C95.1307 85.2775 95.3987 84.4047 95.8984 83.6709C96.398 82.9371 97.1052 82.3774 97.925 82.0672L114.051 76.0059C115.001 75.6502 116.043 75.6502 116.993 76.0059L133.118 82.0672C133.938 82.3774 134.645 82.9371 135.145 83.6709C135.645 84.4047 135.913 85.2775 135.913 86.1718V99.4436C135.876 103.006 134.92 106.495 133.143 109.558C131.365 112.621 128.829 115.15 125.791 116.888L117.674 121.746C117.025 122.146 116.28 122.354 115.522 122.348ZM115.522 79.1665C115.416 79.1468 115.307 79.1468 115.201 79.1665L99.0749 85.2551C98.8933 85.324 98.7374 85.4495 98.6294 85.6141C98.5214 85.7786 98.4668 85.9738 98.4732 86.1718V99.4436C98.512 102.408 99.3151 105.308 100.801 107.853C102.288 110.397 104.404 112.495 106.937 113.933L115.054 118.804C115.197 118.884 115.358 118.926 115.522 118.926C115.685 118.926 115.846 118.884 115.99 118.804L124.106 113.933C126.639 112.495 128.756 110.397 130.242 107.853C131.728 105.308 132.531 102.408 132.57 99.4436V86.1718C132.571 85.9784 132.514 85.7893 132.406 85.6303C132.298 85.4712 132.146 85.3498 131.968 85.2825L115.843 79.2213C115.74 79.1831 115.631 79.1646 115.522 79.1665Z" fill="#3FA0E5"/>
<path d="M115.522 79.1665C115.416 79.1468 115.307 79.1468 115.201 79.1665L99.0749 85.2551C98.8933 85.324 98.7374 85.4495 98.6294 85.6141C98.5214 85.7786 98.4668 85.9738 98.4732 86.1718V99.4436C98.512 102.408 99.3151 105.308 100.801 107.853C102.288 110.397 104.404 112.495 106.937 113.933L115.054 118.804C115.197 118.884 115.358 118.926 115.522 118.926C115.685 118.926 115.846 118.884 115.99 118.804L124.106 113.933C126.639 112.495 128.756 110.397 130.242 107.853C131.728 105.308 132.531 102.408 132.57 99.4436V86.1718C132.571 85.9784 132.514 85.7893 132.406 85.6303C132.298 85.4712 132.146 85.3498 131.968 85.2825L115.843 79.2213C115.74 79.1831 115.631 79.1646 115.522 79.1665Z" fill="#3FA0E5"/>
<path d="M115.251 107.781C114.799 107.779 114.361 107.625 114.01 107.346L107.469 101.943C107.078 101.622 106.834 101.163 106.79 100.666C106.745 100.17 106.904 99.6757 107.231 99.2936C107.558 98.9114 108.027 98.6722 108.534 98.6286C109.041 98.5849 109.545 98.7405 109.935 99.0609L115.067 103.294L123.829 93.8376C124.171 93.4674 124.648 93.2452 125.156 93.2198C125.665 93.1945 126.163 93.3681 126.541 93.7025C126.919 94.0369 127.145 94.5047 127.171 95.0029C127.197 95.5011 127.02 95.989 126.679 96.3592L116.752 107.166C116.562 107.369 116.329 107.529 116.07 107.635C115.811 107.741 115.531 107.791 115.251 107.781Z" fill="white"/>
</g>
<defs>
<clipPath id="clip0_24_86">
<rect width="72.8261" height="72.8261" fill="white" transform="translate(77.6521 61.1739)"/>
</clipPath>
</defs>
</svg>
