<svg width="152" height="134" viewBox="0 0 152 134" fill="none" xmlns="http://www.w3.org/2000/svg">
<circle cx="58.2609" cy="58.2609" r="56.7609" stroke="#3D3D3D" stroke-width="3"/>
<circle cx="59.7175" cy="36.413" r="17.4348" stroke="#3D3D3D" stroke-width="3"/>
<mask id="path-3-inside-1_24_59" fill="white">
<path fill-rule="evenodd" clip-rule="evenodd" d="M84.3913 85.9887H87.3913C87.3913 74.7269 75.0012 65.5974 59.7174 65.5974C44.4335 65.5974 32.0435 74.7269 32.0435 85.9887H35.0435C35.0435 81.5369 37.4859 77.2586 41.9286 73.9851C46.37 70.7124 52.6495 68.5974 59.7174 68.5974C66.7852 68.5974 73.0647 70.7124 77.5062 73.9851C81.9488 77.2586 84.3913 81.5369 84.3913 85.9887Z"/>
</mask>
<path fill-rule="evenodd" clip-rule="evenodd" d="M84.3913 85.9887H87.3913C87.3913 74.7269 75.0012 65.5974 59.7174 65.5974C44.4335 65.5974 32.0435 74.7269 32.0435 85.9887H35.0435C35.0435 81.5369 37.4859 77.2586 41.9286 73.9851C46.37 70.7124 52.6495 68.5974 59.7174 68.5974C66.7852 68.5974 73.0647 70.7124 77.5062 73.9851C81.9488 77.2586 84.3913 81.5369 84.3913 85.9887Z" fill="#3D3D3D"/>
<path d="M84.3913 85.9887H81.3913C81.3913 87.6456 82.7344 88.9887 84.3913 88.9887V85.9887ZM87.3913 85.9887V88.9887C89.0481 88.9887 90.3913 87.6456 90.3913 85.9887H87.3913ZM32.0435 85.9887H29.0435C29.0435 87.6456 30.3866 88.9887 32.0435 88.9887V85.9887ZM35.0435 85.9887V88.9887C36.7003 88.9887 38.0435 87.6456 38.0435 85.9887H35.0435ZM41.9286 73.9851L40.149 71.5699V71.5699L41.9286 73.9851ZM77.5062 73.9851L75.7266 76.4002L77.5062 73.9851ZM84.3913 88.9887H87.3913V82.9887H84.3913V88.9887ZM90.3913 85.9887C90.3913 79.1788 86.6387 73.2614 81.0654 69.1547C75.4908 65.0472 67.9334 62.5974 59.7174 62.5974V68.5974C66.7852 68.5974 73.0647 70.7124 77.5062 73.9851C81.9488 77.2586 84.3913 81.5369 84.3913 85.9887H90.3913ZM59.7174 62.5974C51.5014 62.5974 43.9439 65.0472 38.3694 69.1547C32.796 73.2614 29.0435 79.1788 29.0435 85.9887H35.0435C35.0435 81.5369 37.4859 77.2586 41.9286 73.9851C46.37 70.7124 52.6495 68.5974 59.7174 68.5974V62.5974ZM32.0435 88.9887H35.0435V82.9887H32.0435V88.9887ZM40.149 71.5699C35.1375 75.2625 32.0435 80.3613 32.0435 85.9887H38.0435C38.0435 82.7125 39.8344 79.2546 43.7082 76.4002L40.149 71.5699ZM59.7174 65.5974C52.0752 65.5974 45.1568 67.8799 40.149 71.5699L43.7082 76.4002C47.5833 73.5449 53.2238 71.5974 59.7174 71.5974V65.5974ZM79.2858 71.5699C74.278 67.8799 67.3596 65.5974 59.7174 65.5974V71.5974C66.2109 71.5974 71.8515 73.5449 75.7266 76.4002L79.2858 71.5699ZM87.3913 85.9887C87.3913 80.3613 84.2972 75.2625 79.2858 71.5699L75.7266 76.4002C79.6004 79.2546 81.3913 82.7125 81.3913 85.9887H87.3913Z" fill="#3D3D3D" mask="url(#path-3-inside-1_24_59)"/>
<g clip-path="url(#clip0_24_59)">
<path d="M116.21 134.968C115.03 134.978 113.87 134.661 112.86 134.052L100.23 126.665C95.5013 124.021 91.5548 120.175 88.7891 115.517C86.0233 110.859 84.5363 105.553 84.4783 100.136V79.9527C84.4788 78.5926 84.8959 77.2653 85.6734 76.1493C86.4508 75.0333 87.5514 74.1822 88.827 73.7104L113.921 64.4927C115.399 63.9517 117.021 63.9517 118.498 64.4927L143.592 73.7104C144.868 74.1822 145.968 75.0333 146.746 76.1493C147.523 77.2653 147.94 78.5926 147.941 79.9527V100.136C147.883 105.553 146.396 110.859 143.63 115.517C140.864 120.175 136.918 124.021 132.19 126.665L119.56 134.052C118.549 134.661 117.389 134.978 116.21 134.968ZM116.21 69.2992C116.045 69.2692 115.875 69.2692 115.71 69.2992L90.6165 78.5586C90.3338 78.6632 90.0913 78.8542 89.9232 79.1044C89.7552 79.3546 89.6701 79.6514 89.6801 79.9527V100.136C89.7405 104.643 90.9903 109.055 93.3031 112.924C95.6159 116.794 98.9097 119.983 102.851 122.171L115.481 129.578C115.705 129.7 115.955 129.764 116.21 129.764C116.464 129.764 116.715 129.7 116.938 129.578L129.568 122.171C133.51 119.983 136.803 116.794 139.116 112.924C141.429 109.055 142.679 104.643 142.739 100.136V79.9527C142.74 79.6584 142.651 79.3709 142.484 79.129C142.316 78.8871 142.079 78.7025 141.803 78.6002L116.709 69.3825C116.549 69.3245 116.38 69.2963 116.21 69.2992Z" fill="#3FA0E5"/>
<path d="M116.21 69.2992C116.045 69.2692 115.875 69.2692 115.71 69.2992L90.6165 78.5586C90.3338 78.6632 90.0913 78.8542 89.9232 79.1044C89.7552 79.3546 89.6701 79.6514 89.6801 79.9527V100.136C89.7405 104.643 90.9903 109.055 93.3031 112.924C95.6159 116.794 98.9097 119.983 102.851 122.171L115.481 129.578C115.705 129.7 115.955 129.764 116.21 129.764C116.464 129.764 116.715 129.7 116.938 129.578L129.568 122.171C133.51 119.983 136.803 116.794 139.116 112.924C141.429 109.055 142.679 104.643 142.739 100.136V79.9527C142.74 79.6584 142.651 79.3709 142.484 79.129C142.316 78.8871 142.079 78.7025 141.803 78.6002L116.709 69.3825C116.549 69.3245 116.38 69.2963 116.21 69.2992Z" fill="white"/>
<path d="M116.522 122.348C115.764 122.354 115.018 122.146 114.369 121.746L106.252 116.888C103.214 115.15 100.678 112.621 98.9006 109.558C97.1233 106.495 96.1677 103.006 96.1304 99.4436V86.1718C96.1307 85.2775 96.3987 84.4047 96.8984 83.6709C97.398 82.9371 98.1052 82.3774 98.925 82.0672L115.051 76.0059C116.001 75.6502 117.043 75.6502 117.993 76.0059L134.118 82.0672C134.938 82.3774 135.645 82.9371 136.145 83.6709C136.645 84.4047 136.913 85.2775 136.913 86.1718V99.4436C136.876 103.006 135.92 106.495 134.143 109.558C132.365 112.621 129.829 115.15 126.791 116.888L118.674 121.746C118.025 122.146 117.28 122.354 116.522 122.348ZM116.522 79.1665C116.416 79.1468 116.307 79.1468 116.201 79.1665L100.075 85.2551C99.8933 85.324 99.7374 85.4495 99.6294 85.6141C99.5214 85.7786 99.4668 85.9738 99.4732 86.1718V99.4436C99.512 102.408 100.315 105.308 101.801 107.853C103.288 110.397 105.404 112.495 107.937 113.933L116.054 118.804C116.197 118.884 116.358 118.926 116.522 118.926C116.685 118.926 116.846 118.884 116.99 118.804L125.106 113.933C127.639 112.495 129.756 110.397 131.242 107.853C132.728 105.308 133.531 102.408 133.57 99.4436V86.1718C133.571 85.9784 133.514 85.7893 133.406 85.6303C133.298 85.4712 133.146 85.3498 132.968 85.2825L116.843 79.2213C116.74 79.1831 116.631 79.1646 116.522 79.1665Z" fill="#3FA0E5"/>
<path d="M116.522 79.1665C116.416 79.1468 116.307 79.1468 116.201 79.1665L100.075 85.2551C99.8933 85.324 99.7374 85.4495 99.6294 85.6141C99.5214 85.7786 99.4668 85.9738 99.4732 86.1718V99.4436C99.512 102.408 100.315 105.308 101.801 107.853C103.288 110.397 105.404 112.495 107.937 113.933L116.054 118.804C116.197 118.884 116.358 118.926 116.522 118.926C116.685 118.926 116.846 118.884 116.99 118.804L125.106 113.933C127.639 112.495 129.756 110.397 131.242 107.853C132.728 105.308 133.531 102.408 133.57 99.4436V86.1718C133.571 85.9784 133.514 85.7893 133.406 85.6303C133.298 85.4712 133.146 85.3498 132.968 85.2825L116.843 79.2213C116.74 79.1831 116.631 79.1646 116.522 79.1665Z" fill="#3FA0E5"/>
<path d="M116.251 107.781C115.799 107.779 115.361 107.625 115.01 107.346L108.469 101.943C108.078 101.622 107.834 101.163 107.79 100.666C107.745 100.17 107.904 99.6757 108.231 99.2935C108.558 98.9114 109.027 98.6722 109.534 98.6286C110.041 98.5849 110.545 98.7405 110.935 99.0609L116.067 103.294L124.829 93.8376C125.171 93.4674 125.648 93.2452 126.156 93.2198C126.665 93.1945 127.163 93.3681 127.541 93.7025C127.919 94.0369 128.145 94.5046 128.171 95.0029C128.197 95.5011 128.02 95.989 127.679 96.3592L117.752 107.166C117.562 107.369 117.329 107.529 117.07 107.635C116.811 107.741 116.531 107.791 116.251 107.781Z" fill="white"/>
</g>
<defs>
<clipPath id="clip0_24_59">
<rect width="72.8261" height="72.8261" fill="white" transform="translate(78.6521 61.1739)"/>
</clipPath>
</defs>
</svg>
