<svg width="123" height="123" viewBox="0 0 123 123" fill="none" xmlns="http://www.w3.org/2000/svg">
<path fill-rule="evenodd" clip-rule="evenodd" d="M7 0C3.13401 0 0 3.13401 0 7V36.9286C0 40.7946 3.13401 43.9286 7 43.9286H36.9286C40.7946 43.9286 43.9286 40.7946 43.9286 36.9286V7C43.9286 3.13401 40.7946 0 36.9286 0H7ZM21.9643 30.75C26.8165 30.75 30.75 26.8165 30.75 21.9643C30.75 17.1121 26.8165 13.1786 21.9643 13.1786C17.1121 13.1786 13.1786 17.1121 13.1786 21.9643C13.1786 26.8165 17.1121 30.75 21.9643 30.75Z" fill="white"/>
<path fill-rule="evenodd" clip-rule="evenodd" d="M7 79.0714C3.13401 79.0714 0 82.2054 0 86.0714V116C0 119.866 3.13401 123 7 123H36.9286C40.7946 123 43.9286 119.866 43.9286 116V86.0714C43.9286 82.2054 40.7946 79.0714 36.9286 79.0714H7ZM21.9643 109.821C26.8165 109.821 30.75 105.888 30.75 101.036C30.75 96.1835 26.8165 92.25 21.9643 92.25C17.1121 92.25 13.1786 96.1835 13.1786 101.036C13.1786 105.888 17.1121 109.821 21.9643 109.821Z" fill="white"/>
<path fill-rule="evenodd" clip-rule="evenodd" d="M86.0715 0C82.2055 0 79.0715 3.13401 79.0715 7V36.9286C79.0715 40.7946 82.2055 43.9286 86.0715 43.9286H116C119.866 43.9286 123 40.7946 123 36.9286V7C123 3.13401 119.866 0 116 0H86.0715ZM101.036 30.75C105.888 30.75 109.821 26.8165 109.821 21.9643C109.821 17.1121 105.888 13.1786 101.036 13.1786C96.1835 13.1786 92.25 17.1121 92.25 21.9643C92.25 26.8165 96.1835 30.75 101.036 30.75Z" fill="white"/>
<path fill-rule="evenodd" clip-rule="evenodd" d="M86.0715 79.0714C82.2055 79.0714 79.0715 82.2054 79.0715 86.0714V116C79.0715 119.866 82.2055 123 86.0715 123H116C119.866 123 123 119.866 123 116V86.0714C123 82.2054 119.866 79.0714 116 79.0714H86.0715ZM101.036 109.821C105.888 109.821 109.821 105.888 109.821 101.036C109.821 96.1835 105.888 92.25 101.036 92.25C96.1835 92.25 92.25 96.1835 92.25 101.036C92.25 105.888 96.1835 109.821 101.036 109.821Z" fill="white"/>
<path d="M24.1606 61.5H53.3029C53.385 61.5 53.4648 61.4906 53.5443 61.4698C56.2713 60.7558 61.4999 58.4005 61.4999 54.4038C61.4999 50.3489 61.4999 31.0879 61.4999 21.9643" stroke="white" stroke-width="5" stroke-linecap="round"/>
<path d="M61.5 79.0714L61.5 109.821" stroke="white" stroke-width="5" stroke-linecap="round"/>
<line x1="101.339" y1="63.3929" x2="113.911" y2="63.3929" stroke="white" stroke-width="5" stroke-linecap="round"/>
<line x1="74.9822" y1="63.3929" x2="94.1429" y2="63.3929" stroke="white" stroke-width="5" stroke-linecap="round"/>
</svg>
