<svg width="135" height="136" viewBox="0 0 135 136" fill="none" xmlns="http://www.w3.org/2000/svg">
<path d="M78.6449 66.3738H3C2.44772 66.3738 2 66.8215 2 67.3738V115.813C2 116.211 2.23519 116.57 2.59918 116.729L41.6607 133.819C41.9239 133.934 42.224 133.93 42.4844 133.809L79.0677 116.737C79.4198 116.572 79.6449 116.219 79.6449 115.83V67.3738C79.6449 66.8215 79.1971 66.3738 78.6449 66.3738Z" stroke="#3D3D3D" stroke-width="3"/>
<path d="M22.0374 88.9159L41.5272 101.097C41.8605 101.305 42.2849 101.299 42.6119 101.081L60.8598 88.9159" stroke="#3D3D3D" stroke-width="3" stroke-linecap="round"/>
<path fill-rule="evenodd" clip-rule="evenodd" d="M42.0746 56.3551L34.7025 47.93C33.8975 47.01 32.546 46.8055 31.5049 47.4462L20.2275 54.3861C19.3143 54.9481 19.7126 56.3551 20.7848 56.3551H42.0746Z" fill="#3D3D3D"/>
<path d="M20.7848 56.3551H20.5609C19.5526 56.3551 19.178 55.0319 20.0368 54.5035L20.2275 54.3861M20.7848 56.3551H42.0746M20.7848 56.3551C19.7126 56.3551 19.3143 54.9481 20.2275 54.3861M20.7848 56.3551H62.0346M42.0746 56.3551L34.7025 47.93M42.0746 56.3551L52.6127 42.6556M42.0746 56.3551H62.0346M34.7025 47.93C33.8975 47.01 32.546 46.8055 31.5049 47.4462M34.7025 47.93L33.8649 46.9727C33.5435 46.6053 33.0039 46.5237 32.5882 46.7795L31.5049 47.4462M52.6127 42.6556C53.6153 41.3522 55.5806 41.3522 56.5832 42.6556M52.6127 42.6556L53.8053 41.1052C54.2056 40.5848 54.9903 40.5848 55.3905 41.1052L56.5832 42.6556M56.5832 42.6556L64.0199 52.3233M64.0199 52.3233C65.2869 53.9705 64.1127 56.3551 62.0346 56.3551M64.0199 52.3233L65.883 54.7454C66.3889 55.403 65.9201 56.3551 65.0904 56.3551H62.0346M20.2275 54.3861L31.5049 47.4462" stroke="#3D3D3D" stroke-width="3" stroke-linecap="round"/>
<circle cx="97.1775" cy="37.5701" r="37.5701" fill="#FF5D54"/>
<path d="M87.1589 19.337C87.1589 18.5515 88.0229 18.0727 88.6889 18.489L96.6476 23.4631C96.9719 23.6658 97.3834 23.6658 97.7076 23.4631L105.666 18.489C106.332 18.0727 107.196 18.5515 107.196 19.337V30.0561H87.1589V19.337Z" fill="white"/>
<path d="M87.1589 33.8131V30.0561M107.196 33.8131V30.0561M107.196 30.0561V19.337C107.196 18.5515 106.332 18.0727 105.666 18.489L97.7076 23.4631C97.3834 23.6658 96.9719 23.6658 96.6476 23.4631L88.6889 18.489C88.0229 18.0727 87.1589 18.5515 87.1589 19.337V30.0561M107.196 30.0561H87.1589" stroke="white"/>
<path d="M87.1589 53.6598C87.1589 54.358 87.8563 54.8413 88.5101 54.5961L96.8265 51.4775C97.0529 51.3926 97.3024 51.3926 97.5288 51.4775L105.845 54.5961C106.499 54.8413 107.196 54.358 107.196 53.6598V33.8131H87.1589V53.6598Z" fill="white" stroke="white"/>
</svg>
